<?xml version="1.0" encoding="utf-8"?>
<!-- Generator: Adobe Illustrator 16.0.0, SVG Export Plug-In . SVG Version: 6.00 Build 0)  -->
<!DOCTYPE svg PUBLIC "-//W3C//DTD SVG 1.1//EN" "http://www.w3.org/Graphics/SVG/1.1/DTD/svg11.dtd">
<svg version="1.1" id="Layer_1" xmlns="http://www.w3.org/2000/svg" xmlns:xlink="http://www.w3.org/1999/xlink" x="0px" y="0px"
	 width="1000px" height="256.69px" viewBox="-193.963 318.039 1000 256.69" enable-background="new -193.963 318.039 1000 256.69"
	 xml:space="preserve">
<title>spiderman-logo</title>
<g>
	<path d="M24.06,428.546c-13.181,9.796-27.557,14.694-42.251,19.909l-14.216,96.409l-58.02,9.956l-6.85-13.979
		c-11.043,10.729-24.254,18.971-38.746,24.172c-14.562,5.31-30.365,6.211-45.437,2.589l-12.504-20.628l12.544-59.016
		c5.412,1.7,10.933,3.029,16.526,3.981c16.287,1.633,25.764-8.321,28.591-21.264c1.997-10.769,1.229-21.865-2.23-32.255
		c-3.066-10.593-7.566-20.708-11.19-31.102c-3.75-10.083-5.848-20.707-6.212-31.459c-0.438-27.278,15.451-46.034,39.503-53.64
		c14.777-4.188,30.267-5.246,45.476-3.105c6.049,0.319,12.11,0.319,18.159,0c19.154,0,38.269,0,56.985,4.938
		c11.43,2.482,21.891,8.239,30.105,16.566c0,0,0.517,0,0.995,0l2.749-21.105c0.638-0.688,1.59-0.991,2.509-0.797
		c24.092,0,48.184,0,72.316,0.24c13.215,0.043,26.328,2.319,38.786,6.729c13.491,4.75,25.066,13.767,32.973,25.685
		c0.356,0.814,1.057,1.427,1.912,1.672l1.792-33.569c1.354-1.155,2.668-0.717,3.982-0.717c33.729,0,67.498,0,101.227,0
		c13.347-0.206,26.652,1.524,39.502,5.138c12.195,3.055,23.136,9.833,31.3,19.393c6.401,7.554,9.564,17.327,8.802,27.198
		c-0.359,4.5-0.599,9-0.916,13.897h25.287c-0.279-21.623-3.267-43.246,1.035-65.148h61.165l20.189,57.224h0.637l11.071-57.343
		c20.668,0,41.016,0.597,61.764,0.279l7.964,70.683h0.876c3.066-23.893,2.229-48.104,11.109-71.241h54.795l11.946,33.929
		c0.84-1.16,0.991-2.68,0.399-3.982c-0.889-3.448-0.537-7.099,0.995-10.314c2.149-6.252,3.981-12.504,6.252-18.796
		c16.326,0.359,32.335-0.278,48.622,0.598l4.261,8.363c1.831-2.509,2.11-5.575,3.703-8.203h53.241l48.504,233.035l-12.903,21.265
		l-53.042-11.109l-4.659-12.902l-5.773,10.752c-34.565-6.332-69.131-12.544-103.975-18.357l-5.734-30.583
		c-1.075,3.185,0,6.451-1.395,9.598c-1.393,3.146-2.269,6.091-3.384,9.157l-3.545,9.677l-100.469-12.424l-1.714-33.133
		c-2.269,10.713-4.896,21.266-7.525,32.257l-32.415-2.867l-5.376-17.521h-0.757l-3.185,16.845l-56.825-3.782l-3.266-78.012
		c-7.209-0.638-14.177-0.478-21.624-0.638l1.274,5.218c3.962,16.114,6.625,32.52,7.965,49.06c0.003,7.812-0.582,15.612-1.752,23.336
		l-57.98-1.435c-2.509-22.777-2.23-45.993-13.182-66.781h-0.995v66.702c-44.241,0.438-88.006,1.634-132.048,3.703
		c-1.872-12.821-4.66-25.168-1.952-37.712c-1.593-0.676-1.792,0.399-2.23,0.996c-15.153,21.914-38.601,36.688-64.909,40.897
		c-14.894,2.907-30.026,3.982-45.039,5.894c-13.619,1.673-27.278,3.227-40.897,4.819c-2.084,0.328-4.207,0.328-6.292,0
		c-2.31-6.77-4.699-13.699-6.929-20.669c-0.243-1.115-0.243-2.269,0-3.384c3.266-25.699,6.544-51.41,9.835-77.134
		C23.662,433.444,23.781,431.492,24.06,428.546z M30.591,391.91l0.835,0.557l-15.45,122.292l12.384-1.394l40.061-4.738
		c13.062-1.515,26.163-2.59,39.145-5.019c34.645-6.529,59.732-25.446,74.585-57.461c0.438-0.956,0.518-2.23,2.11-2.71l-3.066,55.752
		c43.525-1.951,86.612-3.266,130.177-3.505v-73.551c1.951,0.678,2.508,2.07,3.344,3.146c5.015,7.07,8.488,15.115,10.195,23.614
		c1.963,9.581,3.424,19.256,4.38,28.99c0.718,5.854,0.678,11.945,1.911,17.8c18.12,0.199,35.84,1.435,54.038,0.955
		c-3.504-27.078-6.092-53.798-18.954-77.811h38.547l3.424,79.403l53.361,3.346l-6.49-61.047h0.916l19.353,62.282l28.951,2.628
		c1.593-10.234,3.106-20.15,4.738-30.026c1.633-9.876,2.708-19.91,5.019-29.548h1.313l3.066,60.848l98.439,11.946l-1.672-43.126
		c3.865,0.111,7.722,0.455,11.548,1.035l8.602,44.838c34.325,5.776,68.374,11.708,102.818,18l-17.202-80.001l0.836-0.319
		c5.654,13.539,10.313,27.438,15.331,41.175c5.019,13.739,10.075,28.154,15.054,42.054l50.972,10.791l-47.787-229.851h-49.417
		l9.597,40.897l-0.876,0.279l-19.912-41.295c-15.211-0.875-29.985-0.676-45.237-0.637c1.712,11.031,3.267,21.344,4.898,31.658
		c1.632,10.313,3.266,20.667,4.897,30.981c1.633,10.313,3.464,20.627,4.979,30.981c1.976,10.072,3.304,20.262,3.982,30.503
		c-13.38-41.893-27.478-83.625-41.893-125.159H575.19c-1.115,7.128-1.513,14.176-2.111,21.185
		c-1.272,14.535-2.707,29.03-3.98,43.564c-1.274,15.929-2.35,31.857-3.505,47.786c0,1.314,0,1.274-1.633,3.226l-13.021-115.205
		c-19.314,0-38.109,0.24-57.184-0.557l-12.384,64.191h-0.916l-22.58-63.714h-57.224l2.709,65.069h-38.946
		c-0.239-0.757-0.398-0.916-0.319-0.996c0.08-0.08,0.679-1.235,1.075-1.792c6.786-9.652,7.405-22.347,1.593-32.614
		c-4.521-8.431-11.605-15.208-20.229-19.354c-15.236-7.378-32.015-11.01-48.94-10.592c-34.446-0.438-68.891,0-103.536-0.199
		c-1.109-0.18-2.246,0.062-3.186,0.676l-2.389,40.578c-0.749-0.115-1.357-0.662-1.553-1.394
		c-5.794-13.431-16.386-24.221-29.707-30.264c-14.135-6.339-29.469-9.558-44.959-9.438c-20.707-0.438-41.375,0-62.082-0.199h-9.717
		l-3.464,26.76c-9.836-14.694-24.092-19.91-39.503-23.256c-11.819-2.188-23.82-3.242-35.84-3.146
		c-8.324-0.387-16.667-0.214-24.968,0.518c-5.229,0.089-10.455-0.31-15.61-1.195c-14.306-1.483-28.761,0.455-42.171,5.655
		c-17.442,7.247-28.592,19.91-31.539,39.025c-1.589,12.263-0.224,24.729,3.982,36.357c3.703,11.309,8.602,22.141,11.946,33.489
		c3.988,11.428,4.948,23.693,2.788,35.6c-2.387,15.209-16.649,25.603-31.856,23.217c-4.62-0.597-8.96-2.189-13.859-2.867
		l-11.628,55.313c43.087,5.694,73.989-12.544,98.559-46.033l-5.456,31.857l55.511-9.319l14.854-97.801
		C-5.169,419.546,15.578,410.705,30.591,391.91z"/>
	<path fill="#ED1C24" d="M30.591,391.91c-15.053,18.795-35.839,27.675-58.339,33.689l-14.894,97.801l-55.472,9.359l5.456-31.857
		c-24.609,33.449-55.511,51.728-98.599,45.993l11.708-55.353c4.898,0.679,9.279,2.271,13.858,2.867
		c15.208,2.387,29.47-8.008,31.857-23.214c2.16-11.909,1.2-24.174-2.788-35.603c-3.504-11.349-8.441-22.219-11.946-33.489
		c-4.207-11.628-5.572-24.094-3.982-36.357c2.947-19.114,14.097-31.857,31.539-39.025c13.385-5.188,27.811-7.125,42.091-5.655
		c5.155,0.884,10.381,1.284,15.61,1.195c8.301-0.733,16.644-0.905,24.968-0.518c12.02-0.096,24.021,0.957,35.84,3.146
		c15.411,3.226,29.667,8.562,39.503,23.255l3.505-26.8h9.875c20.707,0,41.415-0.239,62.082,0.2
		c15.491-0.121,30.824,3.099,44.959,9.438c13.322,6.043,23.913,16.833,29.707,30.264c0.196,0.731,0.805,1.278,1.553,1.394
		l2.389-40.578c0.941-0.615,2.077-0.857,3.187-0.676c34.445,0,68.891-0.2,103.536,0.198c16.925-0.417,33.704,3.215,48.94,10.593
		c8.624,4.146,15.708,10.923,20.229,19.354c5.813,10.267,5.193,22.963-1.592,32.614c-0.399,0.597-0.717,1.194-1.076,1.792
		c-0.358,0.598,0,0.238,0.32,0.996h38.746l-2.749-65.188h57.304l22.58,63.715h0.916l12.384-64.193
		c19.074,0.796,37.869,0.478,57.183,0.558l13.022,115.204c1.513-1.912,1.553-1.912,1.632-3.226
		c1.156-15.929,2.23-31.858,3.506-47.786c1.153-14.535,2.588-29.03,3.98-43.565c0.639-7.008,0.995-14.057,2.111-21.185h51.131
		c14.455,41.694,28.553,83.268,41.893,125.159c-0.678-10.241-2.007-20.431-3.982-30.503c-1.512-10.354-3.346-20.667-4.978-30.981
		c-1.632-10.314-3.265-20.429-5.058-30.742c-1.792-10.314-3.185-20.627-4.898-31.659c15.253,0,30.025-0.238,45.239,0.638
		l19.909,41.295l0.877-0.279l-9.357-40.896h49.299l47.785,229.851l-50.972-10.792c-4.978-13.858-9.915-27.874-15.054-42.053
		c-5.136-14.176-9.675-27.676-15.331-41.175l-0.836,0.319l17.203,80.001c-34.446-6.332-68.493-12.227-102.818-18l-8.522-44.838
		c-3.824-0.58-7.683-0.924-11.548-1.036l1.672,43.126l-98.438-11.945l-3.067-60.848h-1.313c-2.311,9.717-3.387,19.712-5.018,29.548
		c-1.633,9.836-3.106,19.912-4.739,30.025l-28.95-2.628l-19.354-62.281h-0.916l6.451,61.047l-53.36-3.345l-3.426-79.404h-38.547
		c12.902,23.893,15.451,50.732,18.954,77.811c-18.038,0.479-35.838-0.756-54.038-0.955c-1.233-6.014-1.193-11.948-1.911-17.8
		c-0.955-9.734-2.417-19.411-4.38-28.99c-1.707-8.499-5.18-16.544-10.193-23.615c-0.798-1.075-1.395-2.468-3.346-3.146v73.472
		c-43.565,0.239-86.612,1.554-130.177,3.505l3.067-55.751c-1.593,0.479-1.673,1.793-2.111,2.709
		c-14.933,31.857-39.821,50.972-74.585,57.462c-12.942,2.428-26.083,3.503-39.145,5.018l-39.98,4.778l-12.384,1.394l15.45-122.371
		L30.591,391.91z M406.148,325.766l7.566,168.047l41.613,2.588l-10.832-103.018h0.836c12.584,34.645,23.894,69.728,34.565,105.168
		l19.354,1.635c5.217-35.563,11.071-70.524,18.677-105.21c2.229,35.839,3.982,71.679,6.211,107.519l41.974,4.698L546.2,326.164
		h-47.785l-15.411,81.396c-9.796-27.359-19.114-54.597-29.03-81.795H406.148z M703.495,403.935c0.757,0,1.475,0,1.554,0
		c19.911,43.805,35.839,88.803,51.769,134.239l39.104,8.284l-45.118-219.1c-12.901-0.478-25.444-0.279-37.869-0.279
		c-0.287,1.245-0.204,2.545,0.237,3.743l5.654,23.496c4.661,19.313,9.518,38.587,13.58,58.02c0,0.757,0.279,1.792-1.076,1.792
		c-12.424-29.587-26.083-58.538-40.259-87.368h-35.561l31.857,198.391l43.405,7.964C721.933,489.91,712.973,447.103,703.495,403.935
		z M339.646,398.32c5.762-2.684,11.123-6.154,15.928-10.313c8.906-7.625,12.09-20.007,7.965-30.981
		c-1.927-5.676-5.354-10.726-9.916-14.615c-8.272-7-18.22-11.734-28.87-13.738c-11.79-2.42-23.806-3.556-35.84-3.385
		c-7.208,0-14.375,0-21.901,0l-3.305,165.418h41.852v-79.363c1.714,0.179,3.315,0.937,4.539,2.149
		c6.108,4.448,10.942,10.422,14.019,17.322c4.763,10.455,7.969,21.551,9.518,32.933c1.432,8.92,2.07,17.96,2.787,27.357
		l42.051,0.996c0.048-0.544,0.048-1.09,0-1.632c-1.986-16.466-5.087-32.776-9.278-48.822
		C364.415,424.244,356.45,408.634,339.646,398.32z M73.757,503.131c13.078-0.795,26.08-2.539,38.906-5.216
		c26.289-5.899,48.648-23.071,61.125-46.949c10.341-19.341,15.202-41.139,14.058-63.039c-0.296-11.037-3.349-21.824-8.88-31.379
		c-8.522-14.416-21.702-22.38-37.433-26.641c-13.015-3.248-26.412-4.708-39.821-4.341c-3.231-0.288-6.486-0.14-9.677,0.438
		L73.757,503.131z M684.222,524.595c-18.038-67.697-38.269-133.76-61.923-199.108h-41.892
		c-3.702,16.566-13.579,169.282-11.747,182.104l42.17,5.575l-1.712-42.809l22.62,2.11l8.681,44.761
		c0.35,0.227,0.723,0.412,1.114,0.557L684.222,524.595z M-32.925,422.931c1.305-0.745,2.735-1.244,4.221-1.474
		c7.325-1.691,14.503-3.969,21.464-6.81c16.279-6.312,29.909-18.003,38.627-33.132c8.736-13.941,4.843-32.299-8.801-41.494
		c-5.971-4.428-12.727-7.684-19.911-9.597c-12.774-3.272-25.919-4.866-39.105-4.739c-6.77,0-13.54,0-20.468,0l-34.485,201.099
		l43.365-7.366c0.239-0.956,0.438-1.634,0.558-2.311L-32.925,422.931z M-184.247,542.396c5.942,1.442,12.105,1.739,18.159,0.876
		c35.514-4.937,65.183-29.532,76.617-63.516c5.854-19.193,4.221-38.309-1.114-57.304c-3.901-11.958-8.447-23.696-13.62-35.162
		c-3.275-7.261-4.646-15.238-3.982-23.176c0.492-6.845,4.588-12.912,10.752-15.929c3.546-1.786,7.395-2.894,11.349-3.265
		c6.574-0.598,13.202-0.06,19.593,1.593c1.474-6.65,2.627-13.062,3.425-19.513c-15.859-3.345-32.252-3.236-48.065,0.319
		c-15.331,3.981-27.237,12.504-33.25,27.875c-4.183,11.233-4.808,23.481-1.792,35.083c3.403,12.554,7.552,24.894,12.424,36.954
		c4.783,11.842,7.047,24.549,6.65,37.313c-1.593,22.779-18.756,37.234-41.494,34.844c-2.19-0.237-4.261-1.592-6.809-0.716
		L-184.247,542.396z M196.289,325.606l-9.12,168.485c23.894-1.235,47.349-2.19,71.083-2.668c0-9.04,0.318-26.681,0.318-26.681
		l-28.551,0.278l1.832-51.768h28.153v-21.902h-27.477l1.672-46.75h27.238v-18.995H196.289z M45.405,325.606L22.706,509.144
		l43.804-5.216l18.278-178.281L45.405,325.606z M-81.707,434.678h0.598l14.575-83.188c-7.504-2.38-15.486-2.846-23.216-1.354
		c-8.331,1.085-14.206,8.717-13.122,17.048c0.038,0.292,0.084,0.583,0.14,0.872c0.59,7.009,2.297,13.878,5.057,20.349
		c4.744,10.101,8.814,20.503,12.186,31.141C-84.096,424.604-82.94,429.661-81.707,434.678z M370.029,413.771h34.049
		c0-7.089-0.359-14.216-0.956-21.942h-34.048C369.553,398.997,368.915,406.166,370.029,413.771z M258.529,459.964
		c0.319-14.375,1.076-28.114,0.797-42.17c-7.371-0.231-14.748-0.072-22.101,0.477l-1.395,41.813L258.529,459.964z M238.619,387.131
		h21.383l0.956-37.871c-1.246-0.564-2.621-0.785-3.981-0.637h-16.884c-1.279,12.793-1.731,25.656-1.354,38.508H238.619z
		 M348.128,399.076c5.923,4.503,11.131,9.873,15.451,15.93c0-7.964,0-14.974,0-21.862c-0.12-1.802-0.332-3.596-0.639-5.376
		c-2.547,2.191-4.698,3.982-7.007,5.934c-2.311,1.951-4.659,3.266-7.646,5.335L348.128,399.076z"/>
	<path fill="#FFFFFF" d="M406.188,325.766h47.785c9.876,27.158,19.234,54.436,29.03,81.795l15.411-81.396H546.2l19.912,181.028
		l-41.974-4.698c-2.269-35.84-3.981-71.68-6.211-107.519c-7.566,34.725-13.46,69.647-18.677,105.21l-19.354-1.635
		c-10.632-35.44-21.981-70.483-34.565-105.168h-0.836L455.328,496.4l-41.613-2.588L406.188,325.766z"/>
	<path fill="#FFFFFF" d="M703.495,403.935c9.478,43.168,18.558,85.976,27.398,129.302l-43.406-7.963L655.631,326.88h35.561
		c14.176,28.832,27.875,57.821,40.259,87.37c1.354,0,1.235-1.036,1.075-1.792c-3.982-19.434-8.92-38.708-13.579-58.021
		l-5.654-23.495c-0.442-1.198-0.525-2.499-0.239-3.743c12.424,0,25.008-0.2,37.871,0.278l45.117,219.297l-39.104-8.282
		c-15.93-45.437-31.857-90.594-51.767-134.239C704.97,403.935,704.292,404.015,703.495,403.935z"/>
	<path fill="#FFFFFF" d="M339.646,398.32c16.844,10.313,24.809,25.725,29.667,43.286c4.191,16.046,7.291,32.356,9.277,48.822
		c0.049,0.542,0.049,1.09,0,1.632l-42.051-0.996c-0.717-9.437-1.354-18.438-2.787-27.357c-1.548-11.382-4.755-22.477-9.517-32.933
		c-3.077-6.9-7.911-12.874-14.019-17.322c-1.224-1.213-2.825-1.97-4.54-2.149v79.483h-42.012l3.305-165.418
		c7.526,0,14.693,0,21.901,0c12.034-0.17,24.051,0.964,35.84,3.385c10.642,1.982,20.59,6.688,28.87,13.659
		c4.577,3.883,8.018,8.934,9.956,14.615c4.125,10.974,0.941,23.356-7.965,30.981C350.77,392.166,345.408,395.637,339.646,398.32z
		 M309.063,388.405c10.947-1.689,19.028-11.105,19.036-22.181c-1.014-10.091-8.953-18.097-19.036-19.194V388.405z"/>
	<path fill="#FFFFFF" d="M73.757,503.131l18.079-177.325c3.192-0.579,6.447-0.727,9.677-0.438
		c13.41-0.368,26.807,1.093,39.822,4.341c15.929,4.3,28.91,12.225,37.432,26.64c5.557,9.602,8.61,20.448,8.88,31.539
		c1.144,21.899-3.717,43.697-14.056,63.038c-12.427,23.848-34.705,41.029-60.927,46.989
		C99.837,500.592,86.835,502.336,73.757,503.131z M119.114,462.632c0.533-0.083,1.055-0.23,1.552-0.438
		c1.063-0.69,2.111-1.407,3.146-2.15c8.856-6.792,15.055-16.473,17.522-27.358c4.114-17.089,5.657-34.698,4.579-52.245
		c-0.197-4.525-0.906-9.014-2.111-13.38c-1.984-7.76-7.68-14.037-15.211-16.765L119.114,462.632z"/>
	<path fill="#FFFFFF" d="M684.182,524.595l-42.607-6.93c-0.393-0.144-0.766-0.33-1.115-0.557l-8.681-44.76l-22.62-2.109
		l1.712,42.808l-42.17-5.575c-1.832-12.822,7.964-165.539,11.747-182.104h41.932C645.914,390.834,666.184,457.058,684.182,524.595z
		 M602.469,350.654c2.11,30.304,3.584,60.489,5.138,90.793c5.854,0,11.229,1.154,17.083,0.758l-19.474-91.352
		C604.501,350.062,603.29,349.974,602.469,350.654z"/>
	<path fill="#FFFFFF" d="M-32.925,422.931l-14.535,94.178c0,0.677-0.318,1.354-0.558,2.311l-43.286,7.326l34.486-201.099
		c6.968,0,13.698,0,20.468,0c13.185-0.127,26.331,1.466,39.105,4.738c7.184,1.913,13.939,5.169,19.911,9.597
		c13.644,9.195,17.538,27.553,8.8,41.494c-8.717,15.129-22.347,26.82-38.626,33.132c-6.985,2.859-14.19,5.15-21.543,6.85
		C-30.189,421.687-31.62,422.186-32.925,422.931z M-28.504,394.179c10.237-2.892,18.424-10.588,21.941-20.627
		c3.242-10.231-2.423-21.154-12.654-24.395c-0.748-0.237-1.508-0.428-2.278-0.574L-28.504,394.179z"/>
	<path fill="#FFFFFF" d="M-184.406,542.396l9.159-43.805c2.509-0.876,4.62,0.479,6.809,0.717
		c22.698,2.39,39.821-11.945,41.494-34.843c0.397-12.766-1.867-25.472-6.65-37.313c-4.923-12.03-9.126-24.345-12.584-36.875
		c-3.067-11.585-2.497-23.833,1.632-35.083c6.054-15.252,17.92-23.614,33.252-27.875c15.813-3.556,32.206-3.664,48.064-0.319
		c-0.797,6.451-1.912,12.863-3.425,19.513c-6.391-1.653-13.019-2.191-19.592-1.593c-3.954,0.372-7.803,1.479-11.35,3.265
		c-6.165,3.017-10.259,9.084-10.752,15.929c-0.664,7.938,0.707,15.915,3.982,23.176c5.281,11.459,9.934,23.198,13.938,35.162
		c5.336,19.034,7.009,38.11,1.115,57.304c-11.46,34.029-41.203,58.635-76.776,63.516
		C-172.194,544.155-178.413,543.858-184.406,542.396z"/>
	<path fill="#FFFFFF" d="M196.289,325.606h65.347v18.995h-27.238l-1.673,46.75h27.277v21.902h-28.273l-1.832,51.768l28.552-0.278
		c0,0-0.279,17.641-0.319,26.681c-23.893,0.478-47.108,1.433-71.081,2.668L196.289,325.606z"/>
	<path fill="#FFFFFF" d="M45.205,325.646h39.583L66.151,503.889l-43.804,5.215L45.205,325.646z"/>
	<path d="M-81.707,434.678c-1.274-5.017-2.389-10.114-3.982-15.093c-3.304-10.645-7.308-21.062-11.986-31.18
		c-2.809-6.488-4.557-13.386-5.176-20.429c-1.566-8.254,3.856-16.214,12.11-17.781c0.29-0.055,0.58-0.101,0.872-0.139
		c7.73-1.492,15.711-1.027,23.216,1.354l-14.455,83.227L-81.707,434.678z M-73.105,373.273c-2.19,0-3.583,0.239-4.977,0.438
		c-10.792,1.473-14.575,6.611-13.421,17.481c1.076,9.159,5.296,17.124,8.602,25.605c0.278,0.716,0.278,1.832,1.992,1.395
		L-73.105,373.273z"/>
	<path fill="#FFFFFF" d="M370.029,413.771c-1.114-7.605-0.477-14.774-0.955-21.942h34.048c0.597,7.686,0.876,14.815,0.956,21.942
		H370.029z"/>
	<path d="M258.49,460.084h-22.659l1.354-41.654c7.353-0.549,14.731-0.708,22.101-0.477
		C259.564,431.85,258.848,445.589,258.49,460.084z M239.733,457.416h16.288v-15.93h-16.288V457.416z"/>
	<path d="M238.738,387.131c-0.378-12.865,0.074-25.741,1.354-38.548h17.163c1.361-0.147,2.736,0.073,3.982,0.638l-1.235,37.91
		H238.738z M241.287,384.583h16.367V373.83h-16.327L241.287,384.583z"/>
	<path d="M348.288,399.037c2.986-2.109,5.455-3.704,7.963-5.535c2.51-1.832,4.461-3.783,7.009-5.933
		c0.305,1.78,0.519,3.574,0.637,5.375c0,6.89,0,13.778,0,21.862C359.518,408.795,354.253,403.479,348.288,399.037z"/>
	<path fill="#ED1C24" d="M309.063,388.405V347.07c10.083,1.097,18.022,9.102,19.036,19.194
		C328.069,377.325,319.995,386.719,309.063,388.405z M314.639,353.441v27.875c4.858-3.152,7.84-8.505,7.963-14.296
		c-0.089-5.6-3.114-10.741-7.963-13.54V353.441z"/>
	<path fill="#ED1C24" d="M119.114,462.632l9.477-112.336c7.547,2.717,13.259,8.996,15.252,16.765
		c1.191,4.368,1.886,8.856,2.071,13.38c1.065,17.548-0.492,35.158-4.619,52.245c-2.447,10.896-8.632,20.589-17.482,27.398
		c-1.009,0.771-2.058,1.487-3.146,2.15C120.167,462.428,119.646,462.562,119.114,462.632z M125.804,450.128
		c2.031,0,2.509-1.673,3.265-2.747c2.609-3.647,4.638-7.678,6.014-11.946c6.252-19.911,6.45-40.101,4.699-60.489
		c-0.55-5.704-2.845-11.099-6.571-15.451L125.804,450.128z"/>
	<path fill="#ED1C24" d="M602.469,350.654c0.828-0.706,2.068-0.618,2.787,0.199l19.473,91.352
		c-5.854,0.437-11.269-0.679-17.082-0.758C606.132,411.184,604.699,380.998,602.469,350.654z M612.981,413.412l-1.712,0.239
		c1.592,7.766,0.517,15.73,2.11,23.376c1.425,0.813,3.191,0.735,4.54-0.2L612.981,413.412z"/>
	<path fill="#ED1C24" d="M-28.504,394.179l7.008-45.596c10.55,1.971,17.505,12.121,15.534,22.671
		c-0.15,0.804-0.351,1.598-0.602,2.377C-10.102,383.64-18.286,391.303-28.504,394.179z M-21.655,385.299
		c11.946-6.81,13.977-23.893,4.3-28.751L-21.655,385.299z"/>
	<path d="M314.639,353.481c4.898,2.828,7.93,8.042,7.963,13.699c-0.123,5.79-3.104,11.144-7.963,14.295V353.481z"/>
	<path d="M125.804,450.128l7.406-90.793c3.727,4.353,6.021,9.748,6.571,15.451c1.751,20.389,1.553,40.697-4.699,60.489
		c-1.375,4.269-3.404,8.298-6.014,11.945C128.313,448.455,127.835,449.97,125.804,450.128z"/>
	<path d="M613.101,413.412l4.979,23.415c-1.349,0.936-3.114,1.014-4.539,0.2c-1.554-7.686-0.519-15.61-2.111-23.376L613.101,413.412
		z"/>
	<path d="M-21.655,385.299l4.3-28.751C-7.678,361.326-9.828,378.529-21.655,385.299z"/>
</g>
</svg>
